<?xml version="1.0" encoding="UTF-8"?>
<svg width="18px" height="15px" viewBox="0 0 18 15" version="1.1" xmlns="http://www.w3.org/2000/svg" xmlns:xlink="http://www.w3.org/1999/xlink">
    <!-- Generator: Sketch 55 (78076) - https://sketchapp.com -->
    <title>Page-1</title>
    <desc>Created with Sketch.</desc>
    <g id="desktop" stroke="none" stroke-width="1" fill="none" fill-rule="evenodd">
        <g id="bikedekho" transform="translate(-42.000000, -181.000000)" fill="#D22120" fill-rule="nonzero">
            <g id="Page-1" transform="translate(42.000000, 181.000000)">
                <path d="M4.82083357,11.4014381 C3.43501257,13.2053607 2.00122772,14.4134966 1.61818608,14.1006511 C1.23469827,13.7878055 2.04740688,12.0717557 3.4327817,10.267833 C4.81860269,8.46437049 6.25216446,7.25577455 6.63542918,7.56862009 C7.01869391,7.88146563 6.20598529,9.59751542 4.82083357,11.4014381 M6.59750427,6.11549852 C6.3458613,5.9917405 6.01769925,5.98805997 5.63867319,6.0927252 L7.20586451,4.085683 C7.03341769,3.87451226 6.93079734,3.60054237 6.91228105,3.28815689 C6.9024652,3.11356147 6.92008913,2.93551555 6.96202962,2.76 L2.31332746,8.68313231 C2.20267594,8.81816196 2.09224751,8.95756232 1.98293453,9.10202331 C0.23816537,11.3998279 -0.429313125,13.6792297 0.278544249,14.4376501 C0.411504537,14.5800409 0.671178658,14.8721834 1.1905269,14.9832895 C1.98360379,15.1532843 3.63489918,14.0226697 5.35624412,11.7559197 C7.07736598,9.48893964 7.78611571,7.49408923 7.35845652,6.77293424 C7.2243808,6.54658128 6.97006078,6.29791508 6.59750427,6.11549852" id="Fill-22"></path>
                <path d="M14.3775639,10.3837561 C13.8166085,11.0700545 13.2439372,11.5351947 13.0988949,11.4224473 C12.953384,11.3096999 13.2905664,10.6622011 13.8517561,9.97590267 C14.4127115,9.28983242 14.9851484,8.82492054 15.1301908,8.93766794 C15.2757017,9.05041534 14.9387536,9.69791411 14.3775639,10.3837561 M17.5952077,6.93720036 C17.5891154,6.93263569 17.5823202,6.92944042 17.5757593,6.92556045 C17.569667,6.91916991 17.5640434,6.91255113 17.5570139,6.90707353 C17.4253277,6.80322724 17.2338906,6.82217062 17.1286821,6.94861202 L15.7921368,8.53825911 C15.8038527,8.25958589 15.7380096,8.03158055 15.5838289,7.87820754 C15.1613549,7.4573448 14.8330765,7.21701473 14.5952446,7.07391231 C14.0087486,6.72129137 12.8242751,7.34003272 11.868261,8.57226591 C10.9117782,9.80495568 10.6137268,11.0947038 11.1322707,11.5370205 C11.3412817,11.715271 12.0001816,12.1249503 12.2865172,12.229253 C12.9325297,12.4641054 13.8721417,11.8729804 14.7976946,10.6804598 C14.8133939,10.660147 14.8274529,10.6400624 14.8431522,10.6199779 L17.6031744,7.32359989 C17.7086172,7.19693021 17.7051024,7.02415733 17.5952077,6.93720036" id="Fill-24"></path>
                <path d="M7.63934823,4.43155123 L12.2712217,7.52 C12.4896028,7.34263202 12.7086422,7.19871691 12.92,7.09566381 C11.44708,6.42480859 11.7532525,4.0251764 9.46277532,3.74116304 C9.53586163,3.61835252 9.59204806,3.49150071 9.63374897,3.36307728 L11.931469,4.06738549 C12.0728131,4.11116621 12.2222779,4.02921769 12.2650763,3.88418004 C12.3076551,3.73981595 12.227326,3.5866957 12.0859819,3.5431395 L9.73010005,2.82154352 C9.72527151,2.82019642 9.72022349,2.81974739 9.71517548,2.8186248 C9.70617693,2.44862164 9.5602237,2.11499014 9.28082763,1.91337434 C8.96653449,1.68683721 8.5556708,1.67875461 8.17443671,1.84848907 L6.58233996,0.125998598 C6.48094091,0.0159855226 6.31150354,0.0108216384 6.20395909,0.114548257 C6.09663413,0.218050359 6.09136664,0.391152564 6.19298517,0.501390164 L7.7201163,2.15360698 C7.62617952,2.24184195 7.53816866,2.34130276 7.46003432,2.45445906 C7.00022695,3.12239561 7.03907463,3.96253629 7.5377297,4.36082854 C7.53992448,4.36284919 7.54189979,4.36554338 7.54409457,4.36778855 L7.55616589,4.37587114 C7.56253077,4.38036147 7.56779825,4.38597439 7.57416313,4.39046471 C7.59501358,4.40573184 7.61761986,4.41808025 7.63934823,4.43155123" id="Fill-26"></path>
            </g>
        </g>
    </g>
</svg>