<svg width="18" height="17" viewBox="0 0 18 17" fill="none" xmlns="http://www.w3.org/2000/svg">
<path fill-rule="evenodd" clip-rule="evenodd" d="M9 2.71201C8.12267 1.6696 6.784 1 5.4 1C2.91644 1 1 2.94547 1 5.4791C1 6.28986 1.19911 7.06986 1.59022 7.85347C2.10578 8.88774 2.92267 9.9039 4.28444 11.2974C4.74844 11.7716 9 16 9 16C9 16 13.2507 11.7716 13.7156 11.2974C15.0764 9.9039 15.8933 8.88774 16.4089 7.85347C16.8 7.06986 17 6.28895 17 5.4791C17 2.94547 15.0827 1 12.6 1C11.2133 1 9.87556 1.6687 9 2.71201Z" stroke="black" stroke-width="1.2" stroke-linecap="round" stroke-linejoin="round"/>
</svg>
